<?xml version="1.0" encoding="UTF-8"?>
<svg version="1.1" xmlns="http://www.w3.org/2000/svg" width="167" height="167">
<path d="M0 0 C0.90234375 0.60585937 1.8046875 1.21171875 2.734375 1.8359375 C3.56453125 2.42632812 4.3946875 3.01671875 5.25 3.625 C6.013125 4.13933594 6.77625 4.65367188 7.5625 5.18359375 C9.25 6.625 9.25 6.625 9.5 9.3125 C9.4175 10.075625 9.335 10.83875 9.25 11.625 C5.07979293 11.065491 2.65807821 9.61769996 -0.8125 7.3125 C-9.89065844 2.74020801 -18.55048466 5.59761252 -27.75 8.625 C-31.92950971 10.10856897 -36.03493706 11.7233328 -40.125 13.4375 C-41.09348877 13.83904297 -42.06197754 14.24058594 -43.05981445 14.65429688 C-48.43250225 17.05454787 -52.04159171 19.35721273 -55.48144531 24.18457031 C-56.75 25.625 -56.75 25.625 -60.125 26.5625 C-61.424375 26.5934375 -61.424375 26.5934375 -62.75 26.625 C-64.87100779 23.44348831 -65.42392072 21.12593369 -66.1875 17.46484375 C-66.66109107 15.40092886 -66.66109107 15.40092886 -68.75 13.625 C-69.13286803 9.89203674 -68.89915785 8.84873677 -66.75 5.625 C-65.96625 5.83125 -65.1825 6.0375 -64.375 6.25 C-63.50875 6.37375 -62.6425 6.4975 -61.75 6.625 C-61.09 5.965 -60.43 5.305 -59.75 4.625 C-55.85879026 3.32793009 -52.87193682 2.625 -48.75 2.625 C-47.0515606 2.08561682 -45.35437133 1.54054826 -43.67382812 0.94775391 C-36.76207808 -1.48019369 -30.03822843 -2.98765403 -22.75 -3.75 C-21.58585571 -3.87640869 -21.58585571 -3.87640869 -20.39819336 -4.00537109 C-12.79233244 -4.69317422 -6.51691964 -4.4639016 0 0 Z " fill="#FEFEFE" transform="translate(157.75,65.375)"/>
<path d="M0 0 C0.721875 0.103125 1.44375 0.20625 2.1875 0.3125 C2.1875 4.3125 2.1875 4.3125 -0.125 6.8125 C-1.011875 7.6375 -1.89875 8.4625 -2.8125 9.3125 C-3.84063611 10.62425986 -4.85334432 11.9494893 -5.8125 13.3125 C-1.97698215 12.79418678 -0.44648068 12.05622987 2.1875 9.3125 C4.92999722 7.86908041 6.70596231 7.30103482 9.8125 7.375 C13.07037374 8.66100279 13.75666489 10.16466276 15.1875 13.3125 C15.27 14.17875 15.3525 15.045 15.4375 15.9375 C15.685 16.72125 15.9325 17.505 16.1875 18.3125 C18.50004012 19.35968798 20.8360148 20.35596365 23.1875 21.3125 C27.33123284 25.78336964 28.31865932 28.27917147 28.1875 34.3125 C26.51367188 35.4440918 26.51367188 35.4440918 24.1875 36.3125 C21.72070312 35.57739258 21.72070312 35.57739258 18.96875 34.20703125 C17.95296875 33.71783203 16.9371875 33.22863281 15.890625 32.72460938 C14.83359375 32.19673828 13.7765625 31.66886719 12.6875 31.125 C0.83663577 25.25167596 -10.64165089 19.92221696 -23.8125 24.3125 C-24.4725 23.9825 -25.1325 23.6525 -25.8125 23.3125 C-25.52235788 19.83079452 -25.08493676 18.57021045 -22.5 16.125 C-17.92022591 13.03631515 -15.44212995 12.05660773 -9.8125 12.3125 C-9.585625 11.260625 -9.35875 10.20875 -9.125 9.125 C-7.73747798 4.31752935 -5.24974316 0.5833048 0 0 Z M1.1875 16.3125 C4.8175 16.9725 8.4475 17.6325 12.1875 18.3125 C11.8575 17.3225 11.5275 16.3325 11.1875 15.3125 C5.90550407 14.11261955 5.90550407 14.11261955 1.1875 16.3125 Z " fill="#FFFFFF" transform="translate(25.8125,59.6875)"/>
<path d="M0 0 C2.3125 0.25 2.3125 0.25 4 1 C5.56958276 6.10114397 4.57029048 9.28543806 2.28125 13.88671875 C-0.84201993 19.0382097 -4.43236892 21.03837967 -10 22.8125 C-19.22847597 25.00017687 -28.48582113 25.53206637 -37.0234375 21.0234375 C-39.91420066 19.52663919 -42.85470384 18.80305434 -46 18 C-45.67 16.35 -45.34 14.7 -45 13 C-40.03321655 13.37250876 -37.06765912 15.01817763 -33.125 17.84375 C-30.33397243 19.36239736 -28.17539993 19.80227896 -25 20 C-21.84706516 19.09793206 -21.84706516 19.09793206 -18.8125 17.625 C-17.78769531 17.16351563 -16.76289062 16.70203125 -15.70703125 16.2265625 C-14.81371094 15.82179688 -13.92039063 15.41703125 -13 15 C-12.01 14.67 -11.02 14.34 -10 14 C-8.78130071 11.49552484 -8.78130071 11.49552484 -8 9 C-10.475 8.01 -10.475 8.01 -13 7 C-13.0825 7.598125 -13.165 8.19625 -13.25 8.8125 C-14.28575316 11.83344673 -15.12758598 12.56379299 -18 14 C-23.9525623 14.76164675 -29.29968881 13.65827235 -35 12 C-35 11.34 -35 10.68 -35 10 C-37.31 10 -39.62 10 -42 10 C-42 9.01 -42 8.02 -42 7 C-36.59155662 4.10711168 -32.20364549 2.87557363 -26.09375 2.8671875 C-24.73056641 2.86525391 -24.73056641 2.86525391 -23.33984375 2.86328125 C-22.40269531 2.86714844 -21.46554688 2.87101562 -20.5 2.875 C-19.09427734 2.86919922 -19.09427734 2.86919922 -17.66015625 2.86328125 C-16.75136719 2.86457031 -15.84257812 2.86585937 -14.90625 2.8671875 C-14.08447266 2.86831543 -13.26269531 2.86944336 -12.41601562 2.87060547 C-10 3 -10 3 -7.35351562 3.63330078 C-6.57685547 3.75431152 -5.80019531 3.87532227 -5 4 C-3.3174387 2.68678142 -1.65002828 1.35386936 0 0 Z M-28 6 C-28 7.32 -28 8.64 -28 10 C-27.67 8.68 -27.34 7.36 -27 6 C-27.33 6 -27.66 6 -28 6 Z M-24 6 C-24 6.66 -24 7.32 -24 8 C-23.34 7.67 -22.68 7.34 -22 7 C-22.66 6.67 -23.32 6.34 -24 6 Z " fill="#FEFEFE" transform="translate(144,105)"/>
<path d="M0 0 C2.4375 2.6875 2.4375 2.6875 4 5 C3.62875 5.556875 3.2575 6.11375 2.875 6.6875 C1.70484137 9.05716353 1.70484137 9.05716353 2.875 11.75 C3.24625 12.4925 3.6175 13.235 4 14 C2.25 15.0625 2.25 15.0625 0 16 C-0.66 15.814375 -1.32 15.62875 -2 15.4375 C-2.66 15.293125 -3.32 15.14875 -4 15 C-4.598125 15.45375 -5.19625 15.9075 -5.8125 16.375 C-8.9959399 18.73984107 -11.01917027 18.93681223 -15 19 C-18.77422309 17.91147744 -22.38204902 16.52438079 -26 15 C-26 14.34 -26 13.68 -26 13 C-25.34 12.67 -24.68 12.34 -24 12 C-28.29 11.67 -32.58 11.34 -37 11 C-37 10.01 -37 9.02 -37 8 C-30.46122868 5.94670359 -23.91080497 3.8913917 -17 5 C-16.01 5.66 -15.02 6.32 -14 7 C-13.34 6.01 -12.68 5.02 -12 4 C-18.93 3.67 -25.86 3.34 -33 3 C-33 1.68 -33 0.36 -33 -1 C-22.37044586 -4.44584447 -9.99639456 -6.08476191 0 0 Z M-18 13 C-18.33 13.66 -18.66 14.32 -19 15 C-16.69 15.33 -14.38 15.66 -12 16 C-14.67247634 13.65712582 -14.67247634 13.65712582 -18 13 Z " fill="#FEFEFE" transform="translate(45,103)"/>
<path d="M0 0 C4.75 1.875 4.75 1.875 7 3 C9.0571802 2.59255295 11.09831097 2.10151304 13.125 1.5625 C14.22070312 1.27503906 15.31640625 0.98757812 16.4453125 0.69140625 C17.28835937 0.46324219 18.13140625 0.23507813 19 0 C18.40725356 3.15671942 17.42854419 4.93139714 15.375 7.375 C13.235214 10.21374189 12.98262395 10.68143915 13.1875 14.4375 C13.455625 15.283125 13.72375 16.12875 14 17 C13.41992188 17.06058594 12.83984375 17.12117188 12.2421875 17.18359375 C7.79907137 17.66016561 3.40094577 18.21008666 -1 19 C-1.33 17.02 -1.66 15.04 -2 13 C-3.98 12.34 -5.96 11.68 -8 11 C-8 10.01 -8 9.02 -8 8 C-3.77777778 5 -3.77777778 5 -1 5 C-0.67 3.35 -0.34 1.7 0 0 Z " fill="#FEFEFE" transform="translate(129,82)"/>
<path d="M0 0 C0.99 0.33 1.98 0.66 3 1 C3.62774507 9.78843098 1.30784711 17.60314556 -1 26 C-4.32421875 26.6328125 -4.32421875 26.6328125 -8 27 C-11.72650928 24.18441521 -13.60596753 21.43555787 -15 17 C-13.68 16.34 -12.36 15.68 -11 15 C-9.33333333 16.66666667 -7.66666667 18.33333333 -6 20 C-6.03480469 19.19175781 -6.06960937 18.38351563 -6.10546875 17.55078125 C-6.13253906 16.48214844 -6.15960938 15.41351563 -6.1875 14.3125 C-6.22230469 13.25675781 -6.25710937 12.20101562 -6.29296875 11.11328125 C-5.83844753 6.28323579 -3.53250356 3.19607465 0 0 Z " fill="#FEFEFE" transform="translate(114,35)"/>
<path d="M0 0 C0.99 0 1.98 0 3 0 C3.37634203 6.80203375 2.77471079 11.75690073 0 18 C-1.65 18 -3.3 18 -5 18 C-4.71311275 10.99995111 -3.49595688 6.08973134 0 0 Z " fill="#FFFFFF" transform="translate(142,125)"/>
<path d="" fill="#020202" transform="translate(0,0)"/>
</svg>
