<?xml version="1.0" encoding="UTF-8"?>
<svg version="1.1" xmlns="http://www.w3.org/2000/svg" width="167" height="167">
<path d="M0 0 C2.06970495 1.89180578 2.51182341 2.96294524 2.86328125 5.703125 C-0.19537929 5.25332198 -2.08579749 4.73665851 -4.69921875 3.015625 C-12.70303878 -0.04037901 -21.0799363 3.82638574 -28.57421875 7.015625 C-29.2482373 7.29905762 -29.92225586 7.58249023 -30.61669922 7.87451172 C-35.00429622 9.84953351 -37.74609623 12.22833809 -41.13671875 15.703125 C-43.94921875 15.515625 -43.94921875 15.515625 -46.13671875 14.703125 C-47.40925311 11.05519316 -48.46501069 7.5094707 -49.13671875 3.703125 C-46.25352879 2.0788845 -44.05333686 1.45619236 -40.76171875 1.265625 C-36.59939612 0.88661676 -33.87304546 -0.39058586 -30.13671875 -2.296875 C-19.44769209 -5.45543423 -9.61154859 -6.07045174 0 0 Z " fill="#FEFEFE" transform="translate(138.13671875,77.296875)"/>
<path d="M0 0 C-0.34879632 3.25543229 -1.02133261 4.01873107 -3.5625 6.25 C-4.366875 6.8275 -5.17125 7.405 -6 8 C-2.94389332 8.27480825 -2.94389332 8.27480825 -0.625 6.4375 C2 5 2 5 4.625 4.9375 C7.99937305 6.44708794 8.39852948 8.73300013 10 12 C11.03125 12.639375 12.0625 13.27875 13.125 13.9375 C16 16 16 16 16.875 19.75 C16.91625 20.8225 16.9575 21.895 17 23 C13.51317172 24.16227609 13.09155005 23.87338304 9.91015625 22.3828125 C9.12576172 22.02316406 8.34136719 21.66351563 7.53320312 21.29296875 C6.71787109 20.90753906 5.90253906 20.52210937 5.0625 20.125 C3.45055667 19.37472296 1.83731623 18.62722506 0.22265625 17.8828125 C-0.49140381 17.54652832 -1.20546387 17.21024414 -1.94116211 16.86376953 C-7.20938962 14.65352538 -12.52113094 14.17371031 -18 16 C-18.33 14.68 -18.66 13.36 -19 12 C-15.20307814 9.17438373 -12.81430721 7.43361092 -8 8 C-7.896875 7.236875 -7.79375 6.47375 -7.6875 5.6875 C-6.43889391 0.8065853 -5.02712572 0 0 0 Z M2 9 C1.34 9.66 0.68 10.32 0 11 C2.31 11.33 4.62 11.66 7 12 C5.62514468 10.45833358 5.62514468 10.45833358 4 9 C3.34 9 2.68 9 2 9 Z " fill="#FFFFFF" transform="translate(49,72)"/>
<path d="M0 0 C0.598125 0.20625 1.19625 0.4125 1.8125 0.625 C1.40066325 5.87591851 0.79190093 9.04353917 -3.1875 12.625 C-9.95491242 16.00192524 -16.95127495 16.89421918 -24.19921875 14.72265625 C-26.89326476 13.7533516 -29.54682861 12.7306269 -32.1875 11.625 C-31.8575 10.305 -31.5275 8.985 -31.1875 7.625 C-28.2155615 8.74951727 -25.85309313 9.84793791 -23.1875 11.625 C-16.76722501 12.2670275 -13.47681304 11.29513558 -8.1875 7.625 C-7.8575 6.965 -7.5275 6.305 -7.1875 5.625 C-8.1775 5.295 -9.1675 4.965 -10.1875 4.625 C-10.5175 5.615 -10.8475 6.605 -11.1875 7.625 C-14.21782442 9.14016221 -16.83864962 8.79528053 -20.1875 8.625 C-21.86495682 7.98596883 -23.53311387 7.32158363 -25.1875 6.625 C-27.89636941 6.45701738 -27.89636941 6.45701738 -30.1875 6.625 C-29.1875 3.625 -29.1875 3.625 -26.95703125 2.48046875 C-21.04352985 0.65387241 -14.79978859 0.23845704 -8.6875 1.1875 C-4.61287862 1.69682767 -3.65317816 -0.62625911 0 0 Z M-21.1875 3.625 C-20.8575 4.285 -20.5275 4.945 -20.1875 5.625 C-19.8575 4.965 -19.5275 4.305 -19.1875 3.625 C-19.8475 3.625 -20.5075 3.625 -21.1875 3.625 Z " fill="#FEFEFE" transform="translate(127.1875,102.375)"/>
<path d="M0 0 C2.875 1.75 2.875 1.75 3.8125 3.8125 C3.89788811 6.45953129 3.875 9.10079668 3.875 11.75 C3.1325 11.70875 2.39 11.6675 1.625 11.625 C-1.0789885 11.53387257 -1.0789885 11.53387257 -2.9375 12.8125 C-6.46566803 14.32457201 -9.38121975 13.41421908 -13.125 12.75 C-13.785 12.42 -14.445 12.09 -15.125 11.75 C-15.125 11.09 -15.125 10.43 -15.125 9.75 C-17.765 9.42 -20.405 9.09 -23.125 8.75 C-23.125 8.09 -23.125 7.43 -23.125 6.75 C-17.73039047 4.47858546 -12.86342251 4.54586639 -7.125 4.75 C-7.125 4.42 -7.125 4.09 -7.125 3.75 C-8.02992187 3.76740234 -8.02992187 3.76740234 -8.953125 3.78515625 C-10.15195312 3.79869141 -10.15195312 3.79869141 -11.375 3.8125 C-12.55835938 3.82990234 -12.55835938 3.82990234 -13.765625 3.84765625 C-16.03191002 3.75385306 -17.9538895 3.38241063 -20.125 2.75 C-20.125 2.09 -20.125 1.43 -20.125 0.75 C-13.7621897 -2.1327895 -6.60136056 -2.49596897 0 0 Z M-9.125 10.75 C-5.125 11.75 -5.125 11.75 -5.125 11.75 Z " fill="#FEFEFE" transform="translate(58.125,99.25)"/>
<path d="M0 0 C0.845625 0.185625 1.69125 0.37125 2.5625 0.5625 C6.2773282 1.03529632 9.32974273 0.66064631 13 0 C11.79618552 2.49361571 10.54571278 4.68143083 9 7 C9.30840599 9.15274948 9.30840599 9.15274948 10 11 C8.63875 10.9690625 8.63875 10.9690625 7.25 10.9375 C4.57327412 10.9889755 2.53011948 11.2215017 0 12 C-0.33 10.68 -0.66 9.36 -1 8 C-2.32 7.67 -3.64 7.34 -5 7 C-5 6.34 -5 5.68 -5 5 C-3.35 4.34 -1.7 3.68 0 3 C0 2.01 0 1.02 0 0 Z " fill="#FEFEFE" transform="translate(115,87)"/>
<path d="M0 0 C0.99 0 1.98 0 3 0 C2.52013969 5.56890517 1.70084819 10.67067568 0 16 C-0.66 16 -1.32 16 -2 16 C-4.26028576 8.01945257 -4.26028576 8.01945257 -3.25 4.0625 C-2 2 -2 2 0 0 Z " fill="#FDFDFD" transform="translate(105,56)"/>
<path d="M0 0 C0.66 0 1.32 0 2 0 C2.28571429 8.57142857 2.28571429 8.57142857 0 12 C-0.99 12 -1.98 12 -3 12 C-2.14285714 3.42857143 -2.14285714 3.42857143 0 0 Z " fill="#FFFFFF" transform="translate(124,115)"/>
<path d="M0 0 C3 1 3 1 4.1875 2.875 C5 5 5 5 5 8 C2.53199953 6.84826645 0.95216435 5.95216435 -1 4 C-0.625 1.875 -0.625 1.875 0 0 Z " fill="#FFFFFF" transform="translate(97,65)"/>
<path d="M0 0 C1.65 0 3.3 0 5 0 C5.33 0.66 5.66 1.32 6 2 C3.03 1.505 3.03 1.505 0 1 C0 0.67 0 0.34 0 0 Z " fill="#000000" transform="translate(124,31)"/>
<path d="M0 0 C0.33 0.66 0.66 1.32 1 2 C0.34 1.67 -0.32 1.34 -1 1 C-0.67 0.67 -0.34 0.34 0 0 Z " fill="#010101" transform="translate(122,33)"/>
<path d="" fill="#030202" transform="translate(0,0)"/>
<path d="" fill="#010000" transform="translate(0,0)"/>
<path d="" fill="#000000" transform="translate(0,0)"/>
</svg>
